<?xml version="1.0" encoding="UTF-8"?>
<svg xmlns="http://www.w3.org/2000/svg" id="Icons" viewBox="0 0 74 74" width="512" height="512"><path d="M63.809,58.91a1,1,0,0,1-.785-1.62c.564-.713,1.119-1.485,1.649-2.3a1,1,0,1,1,1.674,1.094c-.563.861-1.153,1.684-1.752,2.443A1,1,0,0,1,63.809,58.91Z" fill="#ADB5B6"/><path d="M37,72A35,35,0,1,1,72,37c0,.254,0,.5-.011.75a1,1,0,1,1-2-.081C70,37.443,70,37.227,70,37A33.009,33.009,0,1,0,58.3,62.2,1,1,0,0,1,59.6,63.723,34.969,34.969,0,0,1,37,72Z" fill="#ADB5B6"/><path d="M68.79,50.081a1,1,0,0,1-.932-1.364,28.355,28.355,0,0,0,.966-2.975,1,1,0,0,1,1.932.516,30.491,30.491,0,0,1-1.034,3.185A1,1,0,0,1,68.79,50.081Z" fill="#ADB5B6"/><path d="M37,62.375A25.375,25.375,0,1,1,62.375,37,25.4,25.4,0,0,1,37,62.375Zm0-48.75A23.375,23.375,0,1,0,60.375,37,23.4,23.4,0,0,0,37,13.625Z" fill="#ADB5B6"/><path d="M37,9.3a1,1,0,0,1-1-1V6.8a1,1,0,1,1,2,0V8.3A1,1,0,0,1,37,9.3Z" fill="#ADB5B6"/><path d="M16.706,17.706A1,1,0,0,1,16,17.413l-1.061-1.06a1,1,0,0,1,1.415-1.415L17.413,16a1,1,0,0,1-.707,1.707Z" fill="#ADB5B6"/><path d="M8.3,38H6.8a1,1,0,1,1,0-2H8.3a1,1,0,0,1,0,2Z" fill="#ADB5B6"/><path d="M15.646,59.354a1,1,0,0,1-.708-1.707L16,56.587A1,1,0,1,1,17.413,58l-1.06,1.061A1,1,0,0,1,15.646,59.354Z" fill="#ADB5B6"/><path d="M37,68.2a1,1,0,0,1-1-1V65.7a1,1,0,0,1,2,0v1.5A1,1,0,0,1,37,68.2Z" fill="#ADB5B6"/><path d="M58.354,59.354a1,1,0,0,1-.707-.292L56.587,58A1,1,0,1,1,58,56.587l1.061,1.06a1,1,0,0,1-.708,1.707Z" fill="#ADB5B6"/><path d="M67.2,38H65.7a1,1,0,0,1,0-2h1.5a1,1,0,0,1,0,2Z" fill="#ADB5B6"/><path d="M57.294,17.706A1,1,0,0,1,56.587,16l1.06-1.061a1,1,0,1,1,1.415,1.415L58,17.413A1,1,0,0,1,57.294,17.706Z" fill="#ADB5B6"/><path d="M37,38a6.672,6.672,0,1,1,6.671-6.671,1,1,0,0,1-2,0A4.671,4.671,0,1,0,37,36a1,1,0,0,1,0,2Z" fill="#ADB5B6"/><path d="M37,49.343a6.679,6.679,0,0,1-6.671-6.672,1,1,0,0,1,2,0A4.671,4.671,0,1,0,37,38a1,1,0,0,1,0-2,6.672,6.672,0,0,1,0,13.343Z" fill="#ADB5B6"/><path d="M37,51.667a1,1,0,0,1-1-1V23.333a1,1,0,0,1,2,0V50.667A1,1,0,0,1,37,51.667Z" fill="#ADB5B6"/></svg>
